<svg width="62" height="66" viewBox="0 0 62 66" fill="none" xmlns="http://www.w3.org/2000/svg">
<path fill-rule="evenodd" clip-rule="evenodd" d="M61.6999 49.5L56.0899 46.2606C54.9383 48.2608 53.524 50.0926 51.8673 51.7494C49.4293 54.1873 46.594 56.1 43.4355 57.4335C40.1691 58.8141 36.7008 59.5145 33.1179 59.5145C29.535 59.5145 26.0599 58.8141 22.8004 57.4335C19.6418 56.1 16.8065 54.1873 14.3685 51.7494C11.9306 49.3114 10.0179 46.4761 8.68443 43.3175C7.29708 40.058 6.59668 36.5829 6.59668 33C6.59668 29.4171 7.29709 25.942 8.6777 22.6824C10.0112 19.5239 11.9238 16.6886 14.3618 14.2506C16.7997 11.8126 19.635 9.9 22.7936 8.56653C26.0599 7.18592 29.5283 6.48551 33.1112 6.48551C35.4212 6.48551 37.7042 6.78183 39.9132 7.36102C42.0481 7.92673 44.1157 8.76184 46.0485 9.84612C49.8604 11.981 53.1267 15.0588 55.4771 18.7494C55.6859 19.0794 55.8879 19.4094 56.0832 19.7461L61.6999 16.5C61.4575 16.0757 61.2016 15.6649 60.9457 15.2541C55.0797 6.08143 44.8093 -1.47662e-06 33.1179 -2.49872e-06C14.8938 -4.09192e-06 0.1179 14.7759 0.117898 33C0.117896 51.2241 14.8938 66 33.1179 66C45.3279 66 55.9957 59.3663 61.6999 49.5Z" fill="#0079AE"/>
</svg>
